<svg width="18" height="22" viewBox="0 0 18 22" fill="none" xmlns="http://www.w3.org/2000/svg">
<path d="M9 21C9 21 16.5 15 16.5 8.5C16.5 4.358 13.142 1 9 1C4.858 1 1.5 4.358 1.5 8.5C1.5 15 9 21 9 21Z" stroke="#2C404D" stroke-width="1.5" stroke-linejoin="round"/>
<path d="M9 11.5C9.39397 11.5 9.78407 11.4224 10.1481 11.2716C10.512 11.1209 10.8427 10.8999 11.1213 10.6213C11.3999 10.3427 11.6209 10.012 11.7716 9.64805C11.9224 9.28407 12 8.89397 12 8.5C12 8.10603 11.9224 7.71593 11.7716 7.35195C11.6209 6.98797 11.3999 6.65726 11.1213 6.37868C10.8427 6.1001 10.512 5.87913 10.1481 5.72836C9.78407 5.5776 9.39397 5.5 9 5.5C8.20435 5.5 7.44129 5.81607 6.87868 6.37868C6.31607 6.94129 6 7.70435 6 8.5C6 9.29565 6.31607 10.0587 6.87868 10.6213C7.44129 11.1839 8.20435 11.5 9 11.5Z" stroke="#2C404D" stroke-width="1.5" stroke-linejoin="round"/>
</svg>
