<svg width="22" height="18" viewBox="0 0 22 18" fill="none" xmlns="http://www.w3.org/2000/svg">
<path fill-rule="evenodd" clip-rule="evenodd" d="M7.15285 0.55127C6.39246 0.55127 5.79644 1.01365 5.42777 1.56819C5.05449 2.12735 4.84865 2.85701 4.84865 3.62354C4.84865 4.39008 5.05449 5.11974 5.42777 5.67889C5.79644 6.2319 6.39246 6.69582 7.15285 6.69582C7.91324 6.69582 8.50926 6.23344 8.87793 5.67889C9.25121 5.11974 9.45706 4.39008 9.45706 3.62354C9.45706 2.85701 9.25121 2.12735 8.87793 1.56819C8.50926 1.01518 7.91324 0.55127 7.15285 0.55127ZM14.8335 0.55127C14.0731 0.55127 13.4771 1.01365 13.1085 1.56819C12.7352 2.12735 12.5293 2.85701 12.5293 3.62354C12.5293 4.39008 12.7352 5.11974 13.1085 5.67889C13.4771 6.2319 14.0731 6.69582 14.8335 6.69582C15.5939 6.69582 16.1899 6.23344 16.5586 5.67889C16.9319 5.11974 17.1377 4.39008 17.1377 3.62354C17.1377 2.85701 16.9319 2.12735 16.5586 1.56819C16.1899 1.01518 15.5939 0.55127 14.8335 0.55127ZM2.54444 7.46389C1.78405 7.46389 1.18803 7.92626 0.819358 8.48081C0.446077 9.03996 0.240234 9.76963 0.240234 10.5362C0.240234 11.3027 0.446077 12.0324 0.819358 12.5915C1.18803 13.1445 1.78405 13.6084 2.54444 13.6084C3.30483 13.6084 3.90085 13.1461 4.26952 12.5915C4.6428 12.0324 4.84865 11.3027 4.84865 10.5362C4.84865 9.76963 4.6428 9.03996 4.26952 8.48081C3.90085 7.9278 3.30483 7.46389 2.54444 7.46389ZM10.9932 7.46389C9.14983 7.46389 7.7842 8.45316 6.91168 9.68053C6.0499 10.8895 5.61671 12.3903 5.61671 13.6084C5.61671 15.0278 6.46927 16.014 7.51538 16.607C8.54459 17.1907 9.83495 17.4488 10.9932 17.4488C12.1514 17.4488 13.4418 17.1922 14.471 16.607C15.5156 16.014 16.3697 15.0278 16.3697 13.6084C16.3697 12.3903 15.9365 10.8895 15.0747 9.68053C14.2037 8.45162 12.8381 7.46389 10.9932 7.46389ZM19.4419 7.46389C18.6816 7.46389 18.0855 7.92626 17.7169 8.48081C17.3436 9.03996 17.1377 9.76963 17.1377 10.5362C17.1377 11.3027 17.3436 12.0324 17.7169 12.5915C18.0855 13.1445 18.6816 13.6084 19.4419 13.6084C20.2023 13.6084 20.7984 13.1461 21.167 12.5915C21.5403 12.0324 21.7462 11.3027 21.7462 10.5362C21.7462 9.76963 21.5403 9.03996 21.167 8.48081C20.7984 7.9278 20.2023 7.46389 19.4419 7.46389Z" fill="#2C404D"/>
</svg>
