<svg width="20" height="20" viewBox="0 0 20 20" fill="none" xmlns="http://www.w3.org/2000/svg">
<path d="M1.77539 10C1.77539 11.0801 1.98813 12.1496 2.40145 13.1474C2.81478 14.1453 3.4206 15.052 4.18433 15.8157C4.94805 16.5794 5.85473 17.1853 6.85259 17.5986C7.85045 18.0119 8.91994 18.2246 10 18.2246C11.0801 18.2246 12.1496 18.0119 13.1474 17.5986C14.1453 17.1853 15.052 16.5794 15.8157 15.8157C16.5794 15.052 17.1853 14.1453 17.5986 13.1474C18.0119 12.1496 18.2246 11.0801 18.2246 10C18.2246 7.81871 17.3581 5.72674 15.8157 4.18433C14.2733 2.64191 12.1813 1.77539 10 1.77539C7.81871 1.77539 5.72674 2.64191 4.18433 4.18433C2.64191 5.72674 1.77539 7.81871 1.77539 10Z" stroke="#2C404D" stroke-width="1.6871" stroke-linecap="round" stroke-linejoin="round"/>
<path d="M10 5.43079V10L12.7415 12.7416" stroke="#2C404D" stroke-width="1.6871" stroke-linecap="round" stroke-linejoin="round"/>
</svg>
