<svg width="35" height="35" viewBox="0 0 35 35" fill="none" xmlns="http://www.w3.org/2000/svg">
<path fill-rule="evenodd" clip-rule="evenodd" d="M11.8668 5.4418C10.7815 5.4418 9.93088 6.10171 9.40471 6.89317C8.87195 7.6912 8.57817 8.73259 8.57817 9.8266C8.57817 10.9206 8.87195 11.962 9.40471 12.76C9.93088 13.5493 10.7815 14.2114 11.8668 14.2114C12.952 14.2114 13.8027 13.5515 14.3288 12.76C14.8616 11.962 15.1554 10.9206 15.1554 9.8266C15.1554 8.73259 14.8616 7.6912 14.3288 6.89317C13.8027 6.10391 12.952 5.4418 11.8668 5.4418ZM22.8288 5.4418C21.7435 5.4418 20.8929 6.10171 20.3667 6.89317C19.8339 7.6912 19.5402 8.73259 19.5402 9.8266C19.5402 10.9206 19.8339 11.962 20.3667 12.76C20.8929 13.5493 21.7435 14.2114 22.8288 14.2114C23.914 14.2114 24.7647 13.5515 25.2908 12.76C25.8236 11.962 26.1174 10.9206 26.1174 9.8266C26.1174 8.73259 25.8236 7.6912 25.2908 6.89317C24.7647 6.10391 23.914 5.4418 22.8288 5.4418ZM5.28957 15.3076C4.20434 15.3076 3.35369 15.9675 2.82751 16.759C2.29476 17.557 2.00098 18.5984 2.00098 19.6924C2.00098 20.7864 2.29476 21.8278 2.82751 22.6258C3.35369 23.4151 4.20434 24.0772 5.28957 24.0772C6.37481 24.0772 7.22546 23.4173 7.75164 22.6258C8.28439 21.8278 8.57817 20.7864 8.57817 19.6924C8.57817 18.5984 8.28439 17.557 7.75164 16.759C7.22546 15.9697 6.37481 15.3076 5.28957 15.3076ZM17.3478 15.3076C14.7169 15.3076 12.7678 16.7195 11.5226 18.4712C10.2926 20.1966 9.67437 22.3386 9.67437 24.0772C9.67437 26.103 10.8912 27.5105 12.3842 28.3568C13.8531 29.1899 15.6947 29.5582 17.3478 29.5582C19.0008 29.5582 20.8424 29.1921 22.3114 28.3568C23.8022 27.5105 25.0212 26.103 25.0212 24.0772C25.0212 22.3386 24.4029 20.1966 23.173 18.4712C21.9299 16.7173 19.9808 15.3076 17.3478 15.3076ZM29.406 15.3076C28.3207 15.3076 27.4701 15.9675 26.9439 16.759C26.4111 17.557 26.1174 18.5984 26.1174 19.6924C26.1174 20.7864 26.4111 21.8278 26.9439 22.6258C27.4701 23.4151 28.3207 24.0772 29.406 24.0772C30.4912 24.0772 31.3418 23.4173 31.868 22.6258C32.4008 21.8278 32.6946 20.7864 32.6946 19.6924C32.6946 18.5984 32.4008 17.557 31.868 16.759C31.3418 15.9697 30.4912 15.3076 29.406 15.3076Z" fill="#2E688C"/>
</svg>
