<svg width="35" height="35" viewBox="0 0 35 35" fill="none" xmlns="http://www.w3.org/2000/svg">
<path d="M8.28582 24.9879C5.0692 24.7243 2.43262 20.6639 2.43262 20.6639C2.43262 25.6734 6.86207 27.519 8.86587 26.8335C10.6587 26.2535 8.28582 24.9879 8.28582 24.9879Z" fill="#947151"/>
<path d="M22.6289 30.1556C23.5253 31.2102 27.6384 30.1556 28.3239 28.9428C31.0132 23.9333 28.3239 20.7166 28.3239 20.7166L22.6289 22.4568C22.6289 22.5095 21.4688 28.8373 22.6289 30.1556Z" fill="#EABC92"/>
<path d="M18.7794 32.4758C19.7813 33.6359 23.4197 33.5832 24.4744 32.4758C26.0563 30.8939 25.9509 23.6696 26.0563 20.1894L19.3594 19.6093C19.3594 19.6093 17.5138 30.9466 18.7794 32.4758Z" fill="#FFE5C1"/>
<path d="M14.9298 30.1556C14.0334 31.2102 9.92031 30.1556 9.2348 28.9428C6.54549 23.9333 9.2348 20.7166 9.2348 20.7166L14.9298 22.4568C14.9298 22.5095 16.1426 28.8373 14.9298 30.1556Z" fill="#EABC92"/>
<path d="M18.8321 32.4758C17.8302 33.6359 14.1918 33.5832 13.1371 32.4758C11.5552 30.8939 11.6606 23.6696 11.5552 20.1894L18.2521 19.6093C18.2521 19.6093 20.0977 30.9466 18.8321 32.4758Z" fill="#FFE5C1"/>
<path d="M18.7793 32.5286C18.6211 31.4212 18.5684 30.3139 18.5684 29.2065C18.5684 28.0991 18.6211 26.9918 18.7793 25.8844C18.9375 26.9918 18.9902 28.0991 18.9902 29.2065C18.9902 30.3139 18.9375 31.4212 18.7793 32.5286Z" fill="#423223"/>
<path d="M18.7794 25.1461C13.4007 25.1461 10.6587 23.0369 10.6587 23.0369C10.6587 23.0369 12.4516 27.8354 18.7794 27.8354C25.1071 27.8354 26.9 23.0369 26.9 23.0369C26.9 23.0369 24.158 25.1461 18.7794 25.1461Z" fill="#3E4347"/>
<path d="M17.25 26.4644C17.25 25.7262 17.5664 25.1461 17.9355 25.0934C17.83 24.9879 17.6718 24.9352 17.5664 24.9352C17.0918 24.9352 16.7227 25.6207 16.7227 26.4644C16.7227 27.3081 17.0918 27.9936 17.5664 27.9936C17.7246 27.9936 17.83 27.8882 17.9355 27.7827C17.5664 27.7827 17.25 27.2026 17.25 26.4644Z" fill="white"/>
<path d="M11.1333 23.3005C7.91671 21.2967 6.65115 13.4397 7.70579 9.9067C8.49676 7.27012 11.397 3.36798 14.0336 2.31335C16.2483 1.46965 21.3633 1.46965 23.578 2.31335C26.2146 3.31525 29.1675 7.21739 29.9058 9.9067C30.9604 13.4924 30.1694 21.2967 26.9528 23.3005C20.2032 27.5191 17.883 27.5191 11.1333 23.3005Z" fill="#FFE5C1"/>
<path d="M6.07104 10.6976C7.75845 14.3361 8.1803 14.4943 9.81498 10.1703C10.6587 7.85014 10.0786 6.47912 11.0805 5.00263C11.6606 4.15893 12.9261 2.84064 12.9261 2.84064C12.9261 2.84064 2.80168 3.84254 6.07104 10.6976Z" fill="#423223"/>
<path d="M10.3422 2.68246C7.81104 4.26441 2.37969 3.63163 5.59632 10.4867C7.28373 14.1252 7.70558 14.2834 9.34026 9.95942C10.184 7.63923 9.60392 6.26821 10.6058 4.79172C11.1859 3.94802 12.926 2.84065 12.926 2.84065C12.926 2.84065 12.135 1.5751 10.3422 2.68246Z" fill="#947151"/>
<path d="M31.5402 10.6976C29.8528 14.3361 29.4309 14.4943 27.7962 10.1703C26.9525 7.85014 27.5326 6.47912 26.5307 5.00263C25.9506 4.15893 24.6851 2.84064 24.6851 2.84064C24.6851 2.84064 34.8095 3.84254 31.5402 10.6976Z" fill="#423223"/>
<path d="M27.2689 2.68246C29.8 4.26441 35.2841 3.63163 32.0675 10.4867C30.3801 14.1252 29.9582 14.2834 28.3235 9.95942C27.4798 7.63923 28.0599 6.26821 27.058 4.79172C26.4779 3.94802 24.7378 2.84065 24.7378 2.84065C24.7378 2.84065 25.476 1.5751 27.2689 2.68246Z" fill="#947151"/>
<path d="M12.0296 10.7504C13.6116 10.7504 14.8771 11.9632 14.8771 13.4924C14.8771 15.0216 13.6116 16.2345 12.0296 16.2345C10.4477 16.2345 9.18213 15.0216 9.18213 13.4924C9.18213 11.9632 10.5004 10.7504 12.0296 10.7504Z" fill="white"/>
<path d="M11.3441 15.549C12.509 15.549 13.4534 14.6282 13.4534 13.4924C13.4534 12.3567 12.509 11.4359 11.3441 11.4359C10.1792 11.4359 9.23486 12.3567 9.23486 13.4924C9.23486 14.6282 10.1792 15.549 11.3441 15.549Z" fill="#3E4347"/>
<path d="M28.3767 13.4924C28.3767 15.0216 27.1111 16.2345 25.5291 16.2345C23.9472 16.2345 22.6816 15.0216 22.6816 13.4924C22.6816 11.9632 23.9472 10.7504 25.5291 10.7504C27.1111 10.7504 28.3767 11.9632 28.3767 13.4924Z" fill="white"/>
<path d="M26.267 15.549C27.4319 15.549 28.3762 14.6282 28.3762 13.4924C28.3762 12.3567 27.4319 11.4359 26.267 11.4359C25.1021 11.4359 24.1577 12.3567 24.1577 13.4924C24.1577 14.6282 25.1021 15.549 26.267 15.549Z" fill="#3E4347"/>
<path d="M13.9282 21.7713L16.1429 23.9861C17.4612 25.3044 20.2033 25.3044 21.5216 23.9861L23.7363 21.7713L21.4161 19.5039H16.1957L13.9282 21.7713Z" fill="#7D644B"/>
<path d="M18.7795 17.5528C18.7795 17.5528 16.4594 20.7694 16.7757 22.2986C17.1449 24.5133 20.467 24.5133 20.8361 22.2986C21.0997 20.7694 18.7795 17.5528 18.7795 17.5528Z" fill="#F15A61"/>
<path d="M18.7793 23.1424L19.3066 20.0312H18.3047L18.7793 23.1424Z" fill="#BA454B"/>
<path d="M16.4062 18.4492H21.1521V20.5585H16.4062V18.4492Z" fill="#423223"/>
<path d="M26.32 18.9238L22.9452 15.4963C20.8886 13.4397 16.7228 13.4397 14.719 15.4963L11.3442 18.9238C10.395 19.873 10.395 21.4549 11.3442 22.4568C12.2934 23.406 13.8753 23.406 14.8245 22.4568L18.1993 19.0293C18.5157 18.7129 19.1485 18.7129 19.4649 19.0293L22.8397 22.4568C23.7889 23.406 25.3708 23.406 26.32 22.4568C27.2691 21.5077 27.2691 19.9257 26.32 18.9238Z" fill="#947151"/>
<path d="M15.9847 15.7599C15.9847 14.5471 17.2503 14.3362 18.7795 14.3362C20.3087 14.3362 21.5743 14.5471 21.5743 15.7599C21.5743 16.7091 19.3596 17.5528 18.7795 17.5528C18.2522 17.5528 15.9847 16.7091 15.9847 15.7599ZM15.141 16.8145L14.6664 17.2891L15.141 17.7637L15.6156 17.2891L15.141 16.8145ZM14.0337 18.0801L13.5591 18.5547L14.0337 19.0293L14.5083 18.5547L14.0337 18.0801ZM15.5102 18.5547L15.0356 19.0293L15.5102 19.5038L15.9847 19.0293L15.5102 18.5547ZM22.4707 16.8145L22.9453 17.2891L22.4707 17.7637L21.9961 17.2891L22.4707 16.8145ZM23.5781 18.0801L24.0527 18.5547L23.5781 19.0293L23.1035 18.5547L23.5781 18.0801ZM22.1016 18.5547L22.5762 19.0293L22.1016 19.5038L21.627 19.0293L22.1016 18.5547Z" fill="#3E4347"/>
</svg>
