<svg width="16" height="16" viewBox="0 0 16 16" fill="none" xmlns="http://www.w3.org/2000/svg">
<path fill-rule="evenodd" clip-rule="evenodd" d="M13.6201 2.37999C13.0575 1.81758 12.2945 1.50163 11.4991 1.50163C10.7036 1.50163 9.94063 1.81758 9.37805 2.37999L2.37805 9.37999C1.83144 9.94567 1.52888 10.7034 1.53553 11.49C1.54218 12.2766 1.85751 13.0291 2.4136 13.5855C2.96969 14.1418 3.72206 14.4575 4.50865 14.4645C5.29524 14.4715 6.05312 14.1693 6.61905 13.623H6.62005L7.11705 13.123C7.25804 12.9858 7.44726 12.9096 7.64396 12.9106C7.84065 12.9116 8.02907 12.9899 8.16861 13.1285C8.30815 13.2671 8.38765 13.455 8.38998 13.6517C8.39231 13.8484 8.31728 14.0381 8.18105 14.18L7.68305 14.681L7.68105 14.683C6.83713 15.5269 5.69253 16.001 4.49905 16.001C3.30557 16.001 2.16097 15.5269 1.31705 14.683C0.473132 13.8391 -0.000976562 12.6945 -0.000976562 11.501C-0.000976562 10.3075 0.473132 9.16291 1.31705 8.31899L8.31705 1.31899C9.16044 0.474542 10.3047 -0.000286562 11.4982 -0.00103671C12.6917 -0.00178685 13.8366 0.471602 14.6811 1.31499C15.5255 2.15838 16.0003 3.30268 16.0011 4.49616C16.0018 5.68964 15.5284 6.83454 14.6851 7.67899L11.2301 11.232C10.9888 11.4864 10.6991 11.6899 10.3779 11.8305C10.0567 11.9711 9.71067 12.0459 9.36011 12.0506C9.00955 12.0552 8.66161 11.9896 8.33682 11.8576C8.01204 11.7256 7.71698 11.5299 7.46908 11.282C7.22117 11.0341 7.02544 10.739 6.89343 10.4142C6.76142 10.0894 6.69581 9.74149 6.70047 9.39093C6.70512 9.04037 6.77996 8.6943 6.92055 8.37313C7.06114 8.05197 7.26465 7.76222 7.51905 7.52099L10.9691 4.06999C11.0382 3.99833 11.1209 3.94115 11.2124 3.9018C11.3039 3.86245 11.4023 3.84172 11.5019 3.84081C11.6015 3.83989 11.7002 3.85882 11.7924 3.89649C11.8846 3.93416 11.9684 3.98981 12.0388 4.06019C12.1093 4.13058 12.165 4.21429 12.2028 4.30645C12.2405 4.3986 12.2596 4.49735 12.2587 4.59693C12.2579 4.69652 12.2373 4.79494 12.198 4.88647C12.1587 4.97799 12.1017 5.06077 12.0301 5.12999L8.58005 8.58099C8.47532 8.68519 8.39214 8.80901 8.33526 8.94536C8.27838 9.08171 8.24891 9.22792 8.24854 9.37566C8.24817 9.5234 8.2769 9.66977 8.3331 9.8064C8.38929 9.94303 8.47185 10.0673 8.57605 10.172C8.68025 10.2767 8.80407 10.3599 8.94042 10.4168C9.07677 10.4737 9.22298 10.5031 9.37072 10.5035C9.51846 10.5039 9.66483 10.4751 9.80146 10.4189C9.93809 10.3628 10.0623 10.2802 10.1671 10.176L13.6211 6.62299C14.1835 6.06041 14.4994 5.29748 14.4994 4.50199C14.4994 3.7065 14.1835 2.94357 13.6211 2.38099" fill="#2C404D"/>
</svg>
