<svg width="74" height="74" viewBox="0 0 74 74" fill="none" xmlns="http://www.w3.org/2000/svg">
<g clip-path="url(#clip0_106_1478)">
<path fill-rule="evenodd" clip-rule="evenodd" d="M23.8564 7.99335C21.2464 7.99335 19.2006 9.58042 17.9352 11.4839C16.6539 13.4031 15.9474 15.9076 15.9474 18.5387C15.9474 21.1698 16.6539 23.6743 17.9352 25.5935C19.2006 27.4917 21.2464 29.084 23.8564 29.084C26.4664 29.084 28.5122 27.497 29.7776 25.5935C31.0589 23.6743 31.7654 21.1698 31.7654 18.5387C31.7654 15.9076 31.0589 13.4031 29.7776 11.4839C28.5122 9.58569 26.4664 7.99335 23.8564 7.99335ZM50.2198 7.99335C47.6098 7.99335 45.564 9.58042 44.2986 11.4839C43.0173 13.4031 42.3108 15.9076 42.3108 18.5387C42.3108 21.1698 43.0173 23.6743 44.2986 25.5935C45.564 27.4917 47.6098 29.084 50.2198 29.084C52.8297 29.084 54.8755 27.497 56.141 25.5935C57.4222 23.6743 58.1288 21.1698 58.1288 18.5387C58.1288 15.9076 57.4222 13.4031 56.141 11.4839C54.8755 9.58569 52.8297 7.99335 50.2198 7.99335ZM8.0384 31.7204C5.42843 31.7204 3.38263 33.3074 2.11719 35.2109C0.835932 37.1301 0.129395 39.6346 0.129395 42.2657C0.129395 44.8968 0.835932 47.4013 2.11719 49.3205C3.38263 51.2187 5.42843 52.811 8.0384 52.811C10.6484 52.811 12.6942 51.224 13.9596 49.3205C15.2409 47.4013 15.9474 44.8968 15.9474 42.2657C15.9474 39.6346 15.2409 37.1301 13.9596 35.2109C12.6942 33.3127 10.6484 31.7204 8.0384 31.7204ZM37.0381 31.7204C30.7109 31.7204 26.0235 35.116 23.0286 39.3288C20.0706 43.4784 18.5837 48.6298 18.5837 52.811C18.5837 57.683 21.5101 61.068 25.1008 63.1033C28.6334 65.1069 33.0625 65.9927 37.0381 65.9927C41.0137 65.9927 45.4427 65.1122 48.9754 63.1033C52.5608 61.068 55.4924 57.683 55.4924 52.811C55.4924 48.6298 54.0055 43.4784 51.0476 39.3288C48.058 35.1107 43.3706 31.7204 37.0381 31.7204ZM66.0378 31.7204C63.4278 31.7204 61.382 33.3074 60.1166 35.2109C58.8353 37.1301 58.1288 39.6346 58.1288 42.2657C58.1288 44.8968 58.8353 47.4013 60.1166 49.3205C61.382 51.2187 63.4278 52.811 66.0378 52.811C68.6477 52.811 70.6935 51.224 71.959 49.3205C73.2402 47.4013 73.9468 44.8968 73.9468 42.2657C73.9468 39.6346 73.2402 37.1301 71.959 35.2109C70.6935 33.3127 68.6477 31.7204 66.0378 31.7204Z" fill="#FABB64"/>
</g>
<defs>
<clipPath id="clip0_106_1478">
<rect width="73.8174" height="73.8174" fill="white" transform="translate(0.129395 0.0843506)"/>
</clipPath>
</defs>
</svg>
