<svg width="18" height="19" viewBox="0 0 18 19" fill="none" xmlns="http://www.w3.org/2000/svg">
<path d="M15.33 17.1915H2.67034V7.24457H15.33M12.6172 0.914734V2.72326H5.38313V0.914734H3.5746V2.72326H2.67034C1.66661 2.72326 0.861816 3.52805 0.861816 4.53178V17.1915C0.861816 17.6711 1.05236 18.1311 1.39152 18.4703C1.73069 18.8094 2.19069 19 2.67034 19H15.33C15.8097 19 16.2697 18.8094 16.6088 18.4703C16.948 18.1311 17.1385 17.6711 17.1385 17.1915V4.53178C17.1385 4.05213 16.948 3.59213 16.6088 3.25296C16.2697 2.9138 15.8097 2.72326 15.33 2.72326H14.4258V0.914734M13.5215 10.8616H9.00018V15.3829H13.5215V10.8616Z" fill="#2C404D"/>
</svg>
