<svg width="23" height="6" viewBox="0 0 23 6" fill="none" xmlns="http://www.w3.org/2000/svg">
<path d="M21.353 3.16603C21.353 3.49332 21.223 3.8072 20.9916 4.03863C20.7602 4.27006 20.4463 4.40008 20.119 4.40008C19.7917 4.40008 19.4778 4.27006 19.2464 4.03863C19.0149 3.8072 18.8849 3.49332 18.8849 3.16603C18.8849 2.83874 19.0149 2.52485 19.2464 2.29342C19.4778 2.06199 19.7917 1.93198 20.119 1.93198C20.4463 1.93198 20.7602 2.06199 20.9916 2.29342C21.223 2.52485 21.353 2.83874 21.353 3.16603ZM12.7147 3.16603C12.7147 3.49332 12.5847 3.8072 12.3532 4.03863C12.1218 4.27006 11.8079 4.40008 11.4806 4.40008C11.1533 4.40008 10.8395 4.27006 10.608 4.03863C10.3766 3.8072 10.2466 3.49332 10.2466 3.16603C10.2466 2.83874 10.3766 2.52485 10.608 2.29342C10.8395 2.06199 11.1533 1.93198 11.4806 1.93198C11.8079 1.93198 12.1218 2.06199 12.3532 2.29342C12.5847 2.52485 12.7147 2.83874 12.7147 3.16603ZM4.07634 3.16603C4.07634 3.49332 3.94632 3.8072 3.71489 4.03863C3.48346 4.27006 3.16958 4.40008 2.84229 4.40008C2.515 4.40008 2.20111 4.27006 1.96968 4.03863C1.73825 3.8072 1.60824 3.49332 1.60824 3.16603C1.60824 2.83874 1.73825 2.52485 1.96968 2.29342C2.20111 2.06199 2.515 1.93198 2.84229 1.93198C3.16958 1.93198 3.48346 2.06199 3.71489 2.29342C3.94632 2.52485 4.07634 2.83874 4.07634 3.16603Z" stroke="#2C404D" stroke-width="2.4681" stroke-linecap="round" stroke-linejoin="round"/>
</svg>
