<svg width="35" height="35" viewBox="0 0 35 35" fill="none" xmlns="http://www.w3.org/2000/svg">
<g clip-path="url(#clip0_64_1089)">
<path d="M14.1877 32.5543C14.1877 33.4866 13.7468 34.2417 13.2037 34.2417C12.6606 34.2417 12.2197 33.4861 12.2197 32.5543V28.6559C12.2197 27.7236 12.66 26.9685 13.2037 26.9685C13.7468 26.9685 14.1877 27.7241 14.1877 28.6559V32.5543ZM21.472 32.5543C21.472 33.4866 21.0312 34.2417 20.488 34.2417C19.9449 34.2417 19.5041 33.4861 19.5041 32.5543V28.6559C19.5041 27.7236 19.9449 26.9685 20.488 26.9685C21.0312 26.9685 21.472 27.7241 21.472 28.6559V32.5543Z" fill="#E08200"/>
<path d="M0.738281 22.0818C0.738281 19.8681 3.95491 20.5336 6.52188 20.5336C9.09097 20.5336 11.3727 20.4925 11.3727 22.7051C11.3727 24.9219 9.28976 26.7164 6.72279 26.7164C4.15371 26.7164 0.738281 24.2981 0.738281 22.0818ZM34.2054 22.0818C34.2054 19.8681 30.9888 20.5336 28.4192 20.5336C25.8506 20.5336 23.569 20.4925 23.569 22.7051C23.569 24.9219 25.6518 26.7164 28.2204 26.7164C30.7879 26.7164 34.2054 24.2981 34.2054 22.0818Z" fill="#2E688C"/>
<path d="M4.83203 20.6001C4.83203 25.6924 10.5154 29.817 17.5351 29.817C24.5531 29.817 30.2381 25.6929 30.2381 20.6001C30.2381 15.5125 24.5531 2.9603 17.5351 2.9603C10.5154 2.9603 4.83203 15.5125 4.83203 20.6001Z" fill="#008AE0"/>
<path d="M12.3331 14.9288C13.7695 14.9288 14.9339 13.517 14.9339 11.7755C14.9339 10.0339 13.7695 8.6221 12.3331 8.6221C10.8968 8.6221 9.73242 10.0339 9.73242 11.7755C9.73242 13.517 10.8968 14.9288 12.3331 14.9288Z" fill="#FFF5E7"/>
<path d="M14.0587 11.8967C14.0587 13.0526 13.2856 13.9891 12.3343 13.9891C11.381 13.9891 10.6079 13.0531 10.6079 11.8967C10.6079 10.7424 11.381 9.80432 12.3343 9.80432C13.2856 9.80432 14.0587 10.7424 14.0587 11.8967Z" fill="#2C404D"/>
<path d="M22.7555 14.9288C24.1918 14.9288 25.3562 13.517 25.3562 11.7755C25.3562 10.0339 24.1918 8.6221 22.7555 8.6221C21.3192 8.6221 20.1548 10.0339 20.1548 11.7755C20.1548 13.517 21.3192 14.9288 22.7555 14.9288Z" fill="#FFF5E7"/>
<path d="M22.7556 13.9891C23.7082 13.9891 24.4805 13.0523 24.4805 11.8967C24.4805 10.7411 23.7082 9.80432 22.7556 9.80432C21.803 9.80432 21.0308 10.7411 21.0308 11.8967C21.0308 13.0523 21.803 13.9891 22.7556 13.9891Z" fill="#2C404D"/>
<path d="M14.3237 15.096C14.3237 13.5694 15.7607 14.7226 17.5324 14.7226C19.3053 14.7226 20.7406 13.5694 20.7406 15.096C20.7406 16.6252 19.3048 19.5138 17.5324 19.5138C15.7601 19.5138 14.3237 16.6252 14.3237 15.096Z" fill="#E04100"/>
<path d="M14.3237 14.055C14.3237 12.5285 15.7612 13.6812 17.5319 13.6812C19.3026 13.6812 20.7401 12.529 20.7401 14.055C20.7401 15.5837 19.3026 18.4724 17.5319 18.4724C15.7612 18.4724 14.3237 15.5837 14.3237 14.055Z" fill="#E08200"/>
</g>
<defs>
<clipPath id="clip0_64_1089">
<rect width="33.7482" height="33.7482" fill="white" transform="translate(0.597656 0.49353)"/>
</clipPath>
</defs>
</svg>
