<svg width="20" height="20" viewBox="0 0 20 20" fill="none" xmlns="http://www.w3.org/2000/svg">
<path d="M16.732 8.0351L19.1795 8.4352C19.2764 8.45117 19.3645 8.50107 19.428 8.57598C19.4916 8.6509 19.5264 8.74596 19.5263 8.84418V11.1216C19.5262 11.219 19.4918 11.3133 19.4291 11.3879C19.3664 11.4625 19.2793 11.5125 19.1833 11.5293L16.732 11.9598C16.5905 12.4527 16.3962 12.923 16.149 13.371L17.5982 15.3829C17.656 15.4627 17.6834 15.5606 17.6755 15.6588C17.6675 15.7571 17.6248 15.8493 17.555 15.9189L15.9445 17.5294C15.8757 17.5985 15.7847 17.6411 15.6876 17.6497C15.5905 17.6583 15.4934 17.6324 15.4135 17.5764L13.3813 16.15C12.9313 16.3999 12.4551 16.5993 11.9613 16.7445L11.5295 19.1844C11.5124 19.2804 11.462 19.3673 11.3872 19.4298C11.3124 19.4923 11.2179 19.5264 11.1205 19.5261H8.84437C8.74648 19.5262 8.65174 19.4915 8.57706 19.4282C8.50238 19.365 8.45261 19.2772 8.43665 19.1806L8.03148 16.7534C7.53566 16.6098 7.05728 16.4117 6.6051 16.1628L4.58812 17.5764C4.50825 17.6324 4.41121 17.6583 4.31409 17.6497C4.21697 17.6411 4.126 17.5985 4.0572 17.5294L2.44538 15.9189C2.37693 15.8491 2.33502 15.7576 2.3269 15.6602C2.31879 15.5628 2.34497 15.4656 2.40093 15.3854L3.8273 13.3913C3.57562 12.937 3.3754 12.456 3.23033 11.9573L0.81579 11.5293C0.720022 11.5123 0.633297 11.4621 0.570824 11.3875C0.50835 11.313 0.474115 11.2188 0.474121 11.1216V8.84418C0.474121 8.64096 0.620187 8.46822 0.82087 8.4352L3.23541 8.03256C3.3819 7.53297 3.58089 7.0554 3.83238 6.59984L2.42252 4.58539C2.36693 4.50564 2.34118 4.40886 2.34977 4.31203C2.35836 4.21519 2.40075 4.12447 2.46952 4.05574L4.08133 2.44647C4.1506 2.37712 4.24223 2.33459 4.33991 2.32645C4.43759 2.31831 4.535 2.34508 4.61479 2.40202L6.61527 3.83093C7.06659 3.58367 7.5412 3.38892 8.0391 3.24666L8.43538 0.820687C8.45135 0.723773 8.50125 0.635691 8.57617 0.572172C8.65109 0.508654 8.74615 0.473837 8.84437 0.473938H11.1217C11.3237 0.473938 11.4952 0.618735 11.5307 0.816877L11.9575 3.25555C12.4528 3.39866 12.927 3.59553 13.3801 3.84617L15.3843 2.40456C15.4641 2.34662 15.5618 2.31901 15.6601 2.32669C15.7583 2.33437 15.8506 2.37684 15.9203 2.44647L17.5309 4.05701C17.5998 4.12597 17.6421 4.21702 17.6505 4.31414C17.6589 4.41126 17.6327 4.50821 17.5766 4.58793L16.1477 6.62397C16.3933 7.07276 16.588 7.54271 16.732 8.03383V8.0351ZM7.09919 10C7.09919 10.7691 7.4047 11.5066 7.9485 12.0504C8.49231 12.5942 9.22987 12.8998 9.99893 12.8998C10.768 12.8998 11.5055 12.5942 12.0494 12.0504C12.5932 11.5066 12.8987 10.7691 12.8987 10C12.8987 9.23096 12.5932 8.4934 12.0494 7.94959C11.5055 7.40578 10.768 7.10028 9.99893 7.10028C9.22987 7.10028 8.49231 7.40578 7.9485 7.94959C7.4047 8.4934 7.09919 9.23096 7.09919 10Z" fill="#2C404D"/>
</svg>
