<svg width="36" height="35" viewBox="0 0 36 35" fill="none" xmlns="http://www.w3.org/2000/svg">
<path d="M30.0443 13.9844L34.4235 14.7003C34.5969 14.7289 34.7545 14.8181 34.8681 14.9522C34.9818 15.0862 35.0441 15.2563 35.0439 15.432V19.5067C35.0438 19.681 34.9822 19.8498 34.87 19.9832C34.7578 20.1166 34.6021 20.2062 34.4303 20.2361L30.0443 21.0065C29.7913 21.8883 29.4436 22.7299 29.0012 23.5313L31.5942 27.131C31.6976 27.2739 31.7466 27.4489 31.7324 27.6247C31.7182 27.8005 31.6418 27.9655 31.5169 28.09L28.6354 30.9715C28.5123 31.0951 28.3495 31.1714 28.1757 31.1867C28.002 31.2021 27.8283 31.1557 27.6855 31.0556L24.0494 28.5036C23.2443 28.9506 22.3922 29.3073 21.5087 29.5671L20.7361 33.9326C20.7056 34.1044 20.6155 34.2598 20.4816 34.3717C20.3478 34.4835 20.1787 34.5445 20.0043 34.5439H15.932C15.7568 34.5441 15.5873 34.4821 15.4537 34.3689C15.3201 34.2556 15.2311 34.0986 15.2025 33.9258L14.4776 29.583C13.5904 29.3261 12.7345 28.9717 11.9255 28.5263L8.31675 31.0556C8.17386 31.1557 8.00024 31.2021 7.82647 31.1867C7.6527 31.1714 7.48993 31.0951 7.36684 30.9715L4.48301 28.09C4.36053 27.9651 4.28555 27.8014 4.27102 27.6271C4.2565 27.4528 4.30335 27.2789 4.40347 27.1355L6.95551 23.5677C6.50521 22.7548 6.14697 21.8943 5.88743 21.002L1.56736 20.2361C1.39602 20.2057 1.24085 20.1159 1.12907 19.9826C1.0173 19.8492 0.956043 19.6807 0.956055 19.5067V15.432C0.956055 15.0684 1.21739 14.7594 1.57645 14.7003L5.89652 13.9799C6.15861 13.086 6.51464 12.2316 6.9646 11.4165L4.4421 7.81227C4.34264 7.66957 4.29656 7.49643 4.31193 7.32317C4.32731 7.14991 4.40315 6.98758 4.52619 6.86463L7.41002 3.98534C7.53395 3.86126 7.69789 3.78516 7.87266 3.7706C8.04744 3.75603 8.22171 3.80394 8.36448 3.9058L11.9437 6.46239C12.7512 6.02001 13.6004 5.67155 14.4912 5.41703L15.2002 1.07651C15.2288 0.903116 15.3181 0.745521 15.4521 0.631875C15.5862 0.51823 15.7562 0.455934 15.932 0.456116H20.0066C20.3679 0.456116 20.6747 0.715184 20.7384 1.0697L21.5019 5.43294C22.3882 5.68898 23.2366 6.04122 24.0471 6.48966L27.6332 3.91035C27.7758 3.80668 27.9507 3.75728 28.1265 3.77103C28.3023 3.78478 28.4674 3.86077 28.5922 3.98534L31.4737 6.8669C31.597 6.99028 31.6728 7.15319 31.6878 7.32695C31.7027 7.50071 31.6559 7.67418 31.5556 7.81681L28.999 11.4597C29.4383 12.2626 29.7868 13.1035 30.0443 13.9822V13.9844ZM12.8095 17.5C12.8095 18.876 13.3561 20.1956 14.3291 21.1686C15.3021 22.1416 16.6217 22.6882 17.9977 22.6882C19.3737 22.6882 20.6933 22.1416 21.6663 21.1686C22.6393 20.1956 23.1859 18.876 23.1859 17.5C23.1859 16.124 22.6393 14.8044 21.6663 13.8314C20.6933 12.8585 19.3737 12.3119 17.9977 12.3119C16.6217 12.3119 15.3021 12.8585 14.3291 13.8314C13.3561 14.8044 12.8095 16.124 12.8095 17.5Z" fill="#2C404D"/>
</svg>
