<svg width="39" height="31" viewBox="0 0 39 31" fill="none" xmlns="http://www.w3.org/2000/svg">
<path fill-rule="evenodd" clip-rule="evenodd" d="M12.617 0.383667C11.2565 0.383667 10.1901 1.21094 9.53048 2.20313C8.86261 3.20356 8.49432 4.50906 8.49432 5.88053C8.49432 7.252 8.86261 8.5575 9.53048 9.55793C10.1901 10.5474 11.2565 11.3774 12.617 11.3774C13.9774 11.3774 15.0438 10.5501 15.7035 9.55793C16.3713 8.5575 16.7396 7.252 16.7396 5.88053C16.7396 4.50906 16.3713 3.20356 15.7035 2.20313C15.0438 1.21369 13.9774 0.383667 12.617 0.383667ZM26.3591 0.383667C24.9987 0.383667 23.9323 1.21094 23.2726 2.20313C22.6048 3.20356 22.2365 4.50906 22.2365 5.88053C22.2365 7.252 22.6048 8.5575 23.2726 9.55793C23.9323 10.5474 24.9987 11.3774 26.3591 11.3774C27.7196 11.3774 28.786 10.5501 29.4456 9.55793C30.1135 8.5575 30.4818 7.252 30.4818 5.88053C30.4818 4.50906 30.1135 3.20356 29.4456 2.20313C28.786 1.21369 27.7196 0.383667 26.3591 0.383667ZM4.37167 12.7516C3.0112 12.7516 1.94481 13.5789 1.28518 14.5711C0.617313 15.5715 0.249023 16.877 0.249023 18.2485C0.249023 19.6199 0.617313 20.9255 1.28518 21.9259C1.94481 22.9153 3.0112 23.7453 4.37167 23.7453C5.73215 23.7453 6.79854 22.9181 7.45816 21.9259C8.12603 20.9255 8.49432 19.6199 8.49432 18.2485C8.49432 16.877 8.12603 15.5715 7.45816 14.5711C6.79854 13.5816 5.73215 12.7516 4.37167 12.7516ZM19.4881 12.7516C16.1899 12.7516 13.7466 14.5216 12.1855 16.7176C10.6436 18.8806 9.86854 21.5658 9.86854 23.7453C9.86854 26.2849 11.3939 28.0494 13.2656 29.1103C15.107 30.1547 17.4157 30.6164 19.4881 30.6164C21.5604 30.6164 23.8691 30.1574 25.7105 29.1103C27.5794 28.0494 29.1076 26.2849 29.1076 23.7453C29.1076 21.5658 28.3325 18.8806 26.7906 16.7176C25.2323 14.5189 22.7889 12.7516 19.4881 12.7516ZM34.6044 12.7516C33.244 12.7516 32.1776 13.5789 31.5179 14.5711C30.8501 15.5715 30.4818 16.877 30.4818 18.2485C30.4818 19.6199 30.8501 20.9255 31.5179 21.9259C32.1776 22.9153 33.244 23.7453 34.6044 23.7453C35.9649 23.7453 37.0313 22.9181 37.6909 21.9259C38.3588 20.9255 38.7271 19.6199 38.7271 18.2485C38.7271 16.877 38.3588 15.5715 37.6909 14.5711C37.0313 13.5816 35.9649 12.7516 34.6044 12.7516Z" fill="#2C404D"/>
</svg>
