<svg width="35" height="35" viewBox="0 0 35 35" fill="none" xmlns="http://www.w3.org/2000/svg">
<path d="M2.10662 19.9484C2.00116 19.4211 1.94842 18.8937 2.00116 18.4192C2.00116 17.7864 2.15935 17.2591 2.47574 16.7318C2.79213 16.1517 3.31945 15.6771 3.89949 15.4135C4.47954 15.0971 5.21778 14.9916 5.90329 15.0971C6.53607 15.1498 7.16885 15.4135 7.69617 15.7826C8.17075 16.099 8.59261 16.5208 8.96173 16.9954C9.54177 17.7864 9.96363 18.7356 10.1746 19.8429V20.0011C10.28 20.6866 9.85816 21.3194 9.17265 21.5303C9.06719 21.5831 8.96173 21.5831 8.85626 21.5831C8.43441 21.6358 8.06529 21.5303 7.7489 21.2667C7.43251 21.003 7.22158 20.6866 7.16885 20.2648C7.06339 19.5265 6.90519 18.8937 6.5888 18.4192C6.32515 17.9446 5.90329 17.5755 5.48144 17.47C5.32325 17.4173 5.11232 17.4173 4.95412 17.47C4.7432 17.5227 4.585 17.6809 4.47954 17.8391C4.32135 18.05 4.21588 18.261 4.21588 18.5774C4.16315 18.8937 4.16315 19.2101 4.21588 19.5265C4.32135 20.1593 4.53227 20.8975 4.90139 21.6358C5.05959 21.9522 5.27051 22.3213 5.48144 22.6904C5.69237 23.0595 5.95602 23.3759 6.16695 23.6396C6.747 24.3251 7.27431 24.8524 7.85436 25.2743C8.53987 25.7489 9.22538 26.0652 9.91089 26.1707C10.5964 26.2762 11.3874 26.2762 12.1784 26.0125C12.8111 25.8543 13.1803 26.0652 13.2857 26.3816C13.3912 26.6453 13.233 27.0671 12.6002 27.2781H12.5475C11.5983 27.5945 10.5964 27.6999 9.69997 27.5417C8.80353 27.4363 7.85436 27.0144 6.95793 26.4871C6.21968 26.0125 5.5869 25.3797 4.90139 24.6415C4.63774 24.3251 4.37408 24.0087 4.16315 23.7451L4.05769 23.5869C3.7413 23.2177 3.47764 22.8486 3.26671 22.4795C2.63393 21.6358 2.26481 20.7921 2.10662 19.9484ZM25.5194 30.3892C26.4686 31.6021 30.6344 30.3892 31.3199 29.0182C34.062 23.4287 31.3199 21.003 31.3199 21.003L25.5194 21.794C25.5194 21.8467 24.3594 28.9128 25.5194 30.3892Z" fill="#18242B"/>
<path d="M17.6622 30.3892C16.7131 31.6021 12.5473 30.3892 11.8618 29.0182C9.11971 23.4287 11.8618 21.003 11.8618 21.003L17.6622 21.794C17.6622 21.8467 18.8751 28.9128 17.6622 30.3892Z" fill="#18242B"/>
<path d="M19.0861 30.0201C19.0334 30.6002 17.7151 30.9166 16.1332 30.7584C14.5512 30.6002 13.3384 30.0729 13.3384 29.4928C13.3911 28.9128 14.6039 29.651 16.1859 29.7565C17.8206 29.9674 19.1389 29.4928 19.0861 30.0201ZM24.0956 30.0201C24.1484 30.6002 25.4666 30.9166 27.0486 30.7584C28.6305 30.6002 29.8434 30.0729 29.8434 29.4928C29.7906 28.9128 28.5778 29.651 26.9959 29.7565C25.3612 29.9674 24.0429 29.4928 24.0956 30.0201Z" fill="#FBF7F1"/>
<path d="M21.5646 32.7622C22.6192 33.9223 26.2577 33.8696 27.4178 32.7622C28.9998 31.1803 28.947 23.956 28.9998 20.4757L22.1447 19.8957C22.1974 19.8957 20.2463 31.233 21.5646 32.7622Z" fill="#2C404D"/>
<path d="M21.6173 32.7622C20.5627 33.9223 16.9242 33.8696 15.7641 32.7622C14.1821 31.1803 14.2349 23.956 14.1821 20.4757L21.0372 19.8957C21.0372 19.8957 22.9356 31.233 21.6173 32.7622Z" fill="#2C404D"/>
<path d="M18.8223 23.956L21.617 29.8619L24.4118 23.956H18.8223Z" fill="#FBF7F1"/>
<path d="M32.48 2.07244C31.2144 1.3342 24.6757 4.76175 23.3574 7.08194L32.7964 12.6715C34.0619 10.404 33.6928 2.75795 32.48 2.07244Z" fill="#2C404D"/>
<path d="M30.5285 5.55271C30.054 5.28905 26.2046 7.0292 25.4663 8.29475L30.7395 11.4059C31.425 10.1931 30.9504 5.81637 30.5285 5.55271Z" fill="#FABB64"/>
<path d="M10.7543 2.07241C9.48876 2.81065 9.11964 10.3513 10.4379 12.6715L19.8769 7.08191C18.6113 4.81445 11.9671 1.33417 10.7543 2.07241Z" fill="#2C404D"/>
<path d="M12.7583 5.55267C12.2837 5.81633 11.8091 10.1403 12.5474 11.4059L17.7678 8.29472C17.0823 7.08189 13.1801 5.28902 12.7583 5.55267Z" fill="#FABB64"/>
<path d="M21.617 5.86908C10.6489 5.86908 9.59424 13.5679 9.59424 17.8392C9.59424 19.632 14.9729 25.1688 21.5643 25.1688C28.2085 25.1688 33.5871 19.632 33.5871 17.8392C33.5871 13.5679 32.5325 5.86908 21.617 5.86908Z" fill="#2C404D"/>
<path d="M18.5588 15.9408C18.5588 15.9408 17.2932 17.8392 14.973 17.2591C12.6528 16.6791 12.5474 14.4116 12.5474 14.4116C12.5474 14.4116 13.8129 12.5133 16.1331 13.0933C18.4533 13.7261 18.5588 15.9408 18.5588 15.9408Z" fill="#BFFFAB"/>
<path d="M18.2951 14.9917C18.2951 14.9917 17.1878 16.2045 15.6586 16.2045C14.0239 16.2045 13.022 13.8843 13.022 13.8843C13.022 13.8843 14.1293 12.6188 16.0804 13.1461C17.926 13.5679 18.2951 14.9917 18.2951 14.9917Z" fill="#93E67F"/>
<path d="M16.6074 14.9389C16.6074 17.5228 15.3418 17.5228 15.3418 14.9389C15.3418 12.3551 16.6074 12.3551 16.6074 14.9389Z" fill="#2C404D"/>
<path d="M24.6753 15.9408C24.6753 15.9408 25.9409 17.8392 28.261 17.2591C30.5812 16.6791 30.6867 14.4116 30.6867 14.4116C30.6867 14.4116 29.4211 12.5133 27.1009 13.0933C24.7808 13.7261 24.6753 15.9408 24.6753 15.9408Z" fill="#BFFFAB"/>
<path d="M24.8862 14.9917C24.8862 14.9917 25.9936 16.2045 27.5228 16.2045C29.1575 16.2045 30.1594 13.8843 30.1594 13.8843C30.1594 13.8843 29.052 12.6188 27.101 13.1461C25.2554 13.5679 24.8862 14.9917 24.8862 14.9917Z" fill="#93E67F"/>
<path d="M26.5737 14.9389C26.5737 17.5228 27.8393 17.5228 27.8393 14.9389C27.892 12.3551 26.5737 12.3551 26.5737 14.9389Z" fill="#2C404D"/>
<path d="M25.0975 18.0501C24.0428 17.2591 22.8827 14.6225 21.6172 14.6225C20.3516 14.6225 19.1388 17.2591 18.1369 18.0501C16.5022 19.3156 12.0728 20.7394 12.0728 20.7394C12.0728 20.7394 16.7659 24.747 21.6172 24.747C26.4685 24.747 31.1616 20.7394 31.1616 20.7394C31.1616 20.7394 26.7321 19.3156 25.0975 18.0501Z" fill="#FBF7F1"/>
<path d="M24.9918 21.6359C24.6227 21.8468 24.1481 21.9523 23.7262 21.9523C23.3044 21.8995 22.8825 21.7941 22.5661 21.5304C22.2497 21.2667 21.9861 20.8976 21.9334 20.5285L21.617 18.7884L21.3006 20.5285C21.2478 20.9504 20.9842 21.2667 20.6678 21.5304C20.3514 21.7941 19.9296 21.9523 19.5077 21.9523C19.0331 21.9523 18.6113 21.8995 18.2421 21.6359C17.873 21.4249 17.5039 21.0558 17.3457 20.5812C17.3457 21.1085 17.6621 21.5831 18.0312 21.8995C18.4003 22.2159 18.9804 22.4268 19.455 22.4796C19.9823 22.5323 20.5096 22.3741 20.9842 22.0577C21.2478 21.8995 21.406 21.6886 21.617 21.4249C21.7752 21.6886 21.9861 21.8995 22.2497 22.0577C22.7243 22.3741 23.2516 22.5323 23.779 22.4796C24.3063 22.4796 24.8336 22.2686 25.2027 21.8995C25.6246 21.5831 25.8882 21.0558 25.8882 20.5812C25.73 21.0558 25.4136 21.4249 24.9918 21.6359Z" fill="#2C404D"/>
<path d="M23.2515 18.3665C22.9351 17.9974 21.9332 17.9447 21.6168 17.9447C21.3004 17.9447 20.2985 17.9974 19.9821 18.3665C19.7712 18.6302 19.9294 19.3157 20.5622 19.9485C20.9313 20.3176 21.3004 20.4231 21.6168 20.4231C21.9332 20.4231 22.3023 20.3176 22.6714 19.9485C23.3042 19.3157 23.4624 18.6302 23.2515 18.3665Z" fill="#2C404D"/>
<path d="M21.4587 32.3403C21.4587 32.9204 20.2459 33.3422 18.7167 33.3422C17.1874 33.3422 15.9746 32.8676 15.9746 32.3403C15.9746 31.7603 17.1874 32.3931 18.7167 32.3931C20.1931 32.3931 21.4587 31.813 21.4587 32.3403ZM27.2064 32.3403C27.2064 32.9204 25.9936 33.3422 24.4644 33.3422C22.9352 33.3422 21.7224 32.8676 21.7224 32.3403C21.7224 31.7603 22.9352 32.3931 24.4644 32.3931C25.9936 32.3931 27.2064 31.813 27.2064 32.3403Z" fill="#FBF7F1"/>
<path d="M16.502 33.184L17.2402 31.9185L17.0293 33.3949L16.502 33.184ZM18.3476 33.6059L18.6112 31.8657L18.8749 33.6059H18.3476ZM20.4041 33.3949L20.1932 32.0239L20.9314 33.2367L20.4041 33.3949ZM26.2046 33.3949L25.9936 31.9185L26.7319 33.184L26.2046 33.3949ZM24.3062 33.6059L24.5699 31.8657L24.8335 33.6059H24.3062ZM22.2497 33.2367L22.9879 32.0239L22.777 33.3949L22.2497 33.2367Z" fill="#18242B"/>
</svg>
